<svg id="图层_1" data-name="图层 1" xmlns="http://www.w3.org/2000/svg" viewBox="0 0 28 28">
  <defs>
    <style>
      .cls-1 {
        fill: #8c8c8c;
        opacity: 0;
      }

      .cls-2 {
        fill: none;
        stroke: #000;
        stroke-linecap: round;
        stroke-linejoin: round;
        stroke-width: 1.53px;
      }
    </style>
  </defs>
  <title>pc-icon</title>
  <rect class="cls-1" width="28" height="28"/>
  <g>
    <path class="cls-2" d="M13.77,12.11c.7,0,2.55,0,2.55,1.39v4.17L24.94,10,16.32,2.38V6.31a1.09,1.09,0,0,1-1.15,1.16,13.29,13.29,0,0,0-7.65,2.78,12.44,12.44,0,0,0-3.94,6.26c4.17-3.71,7.88-4.4,10.19-4.4Zm-.89,0"/>
    <path class="cls-2" d="M.74,13.6V24a1.59,1.59,0,0,0,1.63,1.62H25.62A1.58,1.58,0,0,0,27.24,24V13.6"/>
  </g>
</svg>
